# xmcd CD database file
#
# Track frame offsets:
#	150
#	8497
#	17053
#	27083
#	35299
#	44545
#	54801
#	72776
#	92808
#	105692
#	123130
#	146468
#	163344
#
# Disc length: 2519 seconds
#
# Revision: 1
# Processed by: cddbd v1.5.2PL0 Copyright (c) Steve Scherf et al.
# Submitted via: CDex 1.50beta9
#
DISCID=9b09d50d
DTITLE=Henri Crolla - Quand refleuriront les lilas blancs?
DYEAR=1955
DGENRE=Jazz
TTITLE0=Quand refleuriront les lilas blancs ?
TTITLE1=Je cherche après Titine
TTITLE2=Have you met miss Jones ?
TTITLE3=La romance de Maître Pathelin
TTITLE4=Ay, ay, ay
TTITLE5=I only have eyes for you
TTITLE6=Love for sale
TTITLE7=September song
TTITLE8=Out of nowhere
TTITLE9=Sweet Georgia Brown
TTITLE10=Solitude
TTITLE11=Yardbird suite
TTITLE12=Tenderly
EXTD=YEAR: 1955
EXTT0=
EXTT1=
EXTT2=
EXTT3=
EXTT4=
EXTT5=
EXTT6=
EXTT7=
EXTT8=
EXTT9=
EXTT10=
EXTT11=
EXTT12=
PLAYORDER=
